<svg width="44" height="44" viewBox="0 0 44 44" fill="none" xmlns="http://www.w3.org/2000/svg">
<path d="M0 4C0 1.79086 1.79086 0 4 0H40C42.2091 0 44 1.79086 44 4V40C44 42.2091 42.2091 44 40 44H4C1.79086 44 0 42.2091 0 40V4Z" fill="#E8F1FC"/>
<g clip-path="url(#clip0_1573_16023)">
<path d="M13 18C13 17.2044 13.3161 16.4413 13.8787 15.8787C14.4413 15.3161 15.2044 15 16 15H28C28.7956 15 29.5587 15.3161 30.1213 15.8787C30.6839 16.4413 31 17.2044 31 18V26C31 26.7956 30.6839 27.5587 30.1213 28.1213C29.5587 28.6839 28.7956 29 28 29H16C15.2044 29 14.4413 28.6839 13.8787 28.1213C13.3161 27.5587 13 26.7956 13 26V18Z" stroke="#015EB5" stroke-width="2" stroke-linecap="round" stroke-linejoin="round"/>
<path d="M13 20H31" stroke="#015EB5" stroke-width="2" stroke-linecap="round" stroke-linejoin="round"/>
<path d="M17 25H17.01" stroke="#015EB5" stroke-width="2" stroke-linecap="round" stroke-linejoin="round"/>
<path d="M21 25H23" stroke="#015EB5" stroke-width="2" stroke-linecap="round" stroke-linejoin="round"/>
</g>
<defs>
<clipPath id="clip0_1573_16023">
<rect width="24" height="24" fill="white" transform="translate(10 10)"/>
</clipPath>
</defs>
</svg>
